<svg width="28" height="28" viewBox="0 0 28 28" fill="none" xmlns="http://www.w3.org/2000/svg">
<path fill-rule="evenodd" clip-rule="evenodd" d="M24.856 3.14403C23.13 1.52161 20.7739 0.601161 18.1738 0.25688C15.6906 -0.0722172 14 0.00882483 14 0.00882483C14 0.00882483 12.309 -0.0722172 9.82585 0.25688C7.22579 0.601161 4.86985 1.52161 3.14429 3.14403C1.52147 4.86976 0.601214 7.2259 0.256735 9.82596C-0.0723644 12.3089 0.00887521 13.9999 0.00887521 13.9999C0.00887521 13.9999 -0.0723644 15.6907 0.256735 18.1739C0.601214 20.7737 1.52147 23.13 3.1441 24.8557C4.86985 26.4785 7.22579 27.3986 9.82585 27.7434C12.309 28.0722 14 27.9912 14 27.9912C14 27.9912 15.6906 28.0722 18.1738 27.7434C20.7739 27.3986 23.13 26.4785 24.8556 24.8557C26.4786 23.13 27.3988 20.7737 27.7434 18.1739C28.0722 15.6907 27.9912 13.9999 27.9912 13.9999C27.9912 13.9999 28.0722 12.3089 27.7434 9.82596C27.3988 7.2259 26.4786 4.86976 24.856 3.14403Z" fill="#53A4FF"/>
<path d="M11.1135 14.035C11.1135 12.8154 11.3421 11.7592 11.7995 10.8663C12.2677 9.96255 12.921 9.26022 13.7595 8.75933C14.5979 8.25844 15.5725 8.008 16.6831 8.008C17.7938 8.008 18.7629 8.26388 19.5905 8.77566C20.418 9.27655 21.0823 10.0061 21.5831 10.9643L19.8028 11.8953C19.1168 10.5996 18.0769 9.95166 16.6831 9.95166C15.6269 9.95166 14.783 10.3164 14.1515 11.046C13.5308 11.7756 13.2205 12.7719 13.2205 14.035C13.2205 15.2872 13.5308 16.2781 14.1515 17.0077C14.783 17.7372 15.6269 18.102 16.6831 18.102C18.1096 18.102 19.1604 17.4541 19.8355 16.1583L21.6321 17.1057C21.1313 18.053 20.4616 18.7826 19.6231 19.2943C18.7847 19.7952 17.8047 20.0457 16.6831 20.0457C15.5725 20.0457 14.5979 19.7952 13.7595 19.2943C12.921 18.7935 12.2677 18.0966 11.7995 17.2037C11.3421 16.2999 11.1135 15.2437 11.1135 14.035Z" fill="white"/>
<path d="M7.091 8.22034H9.149V19.8333H7.091V8.22034Z" fill="white"/>
</svg>
