<svg width="20" height="20" viewBox="0 0 20 20" fill="none" xmlns="http://www.w3.org/2000/svg">
<path fill-rule="evenodd" clip-rule="evenodd" d="M15.4667 8.03333L10.0997 13.4C9.83336 13.6667 9.46669 13.8333 9.06669 13.8333C8.66636 13.8333 8.30003 13.6667 8.03336 13.4L4.53336 9.93333C4.16669 9.56667 4.16669 9 4.53336 8.63367C4.90036 8.26667 5.46669 8.26667 5.83336 8.63367L9.03336 11.8337L14.1334 6.73333C14.5 6.36667 15.0667 6.36667 15.4327 6.73333C15.8 7.1 15.8334 7.66667 15.4667 8.03333ZM10 0C4.48387 0 0 4.48387 0 10C0 15.5161 4.48387 20 10 20C15.5158 20 20 15.5161 20 10C20 4.48387 15.5158 0 10 0Z" fill="#387AFF"/>
</svg>
