<svg width="16" height="16" viewBox="0 0 16 16" fill="none" xmlns="http://www.w3.org/2000/svg">
<path d="M8.00027 1.8667C10.7479 1.8667 12.9826 4.1007 12.9826 6.84626C12.9826 8.7482 11.5349 10.3498 11.4728 10.4168L8.49741 13.8941C8.2073 14.213 7.82843 14.213 7.5554 13.8948L4.52293 10.4106C4.46632 10.3498 3.02002 8.7482 3.02002 6.84626C3.02002 4.1007 5.25402 1.8667 8.00027 1.8667ZM8.00002 4.91337C6.93282 4.91337 6.06669 5.77885 6.06669 6.84541C6.06669 7.91454 6.93282 8.78003 8.00002 8.78003C9.06786 8.78003 9.93335 7.91454 9.93335 6.84541C9.93335 5.77885 9.06786 4.91337 8.00002 4.91337Z" fill="#010102"/>
</svg>
